<?xml version="1.0" encoding="UTF-8"?>
<svg width="50px" height="50px" viewBox="0 0 50 50" version="1.1" xmlns="http://www.w3.org/2000/svg" xmlns:xlink="http://www.w3.org/1999/xlink">
    <title>Artboard</title>
    <g id="Artboard" stroke="none" stroke-width="1" fill="none" fill-rule="evenodd">
        <g id="bp-logo-(1)-copy" transform="translate(2.000000, 3.000000)">
            <path d="M25.5555556,5.42752868 C24.7227184,3.52119446 23.6963301,1.70276256 22.4920635,0 C21.2949801,1.70717193 20.2689991,3.52488218 19.4285714,5.42752868 C20.6179654,6.66902636 21.6469425,8.05073783 22.4920635,9.54118874 C23.3292216,8.04570901 24.3589048,6.66304943 25.5555556,5.42752868 L25.5555556,5.42752868 Z" id="Path" fill="#009900"></path>
            <path d="M19.4444444,39.5724713 C20.2772816,41.4788055 21.3036699,43.2972374 22.5079365,45 C23.047619,44.1866528 24.4444444,42.1845673 25.5714286,39.5724713 C24.3869644,38.3269321 23.3584487,36.9458402 22.5079365,35.4588113 C21.6574243,36.9458402 20.6289086,38.3269321 19.4444444,39.5724713 L19.4444444,39.5724713 Z" id="Path" fill="#009900"></path>
            <path d="M19.4444444,5.42752868 C17.9915306,3.92160968 16.397106,2.55471066 14.6825397,1.3451512 C14.1489315,3.35172306 13.8192652,5.40563646 13.6984127,7.47653806 C15.2454415,8.24152254 16.6903124,9.19245912 18,10.3076121 C18.2706427,8.62738781 18.7559798,6.98766728 19.4444444,5.42752868 L19.4444444,5.42752868 Z" id="Path" fill="#009900"></path>
            <path d="M25.5555556,39.5724713 C27.0047664,41.0821992 28.5995782,42.4494302 30.3174603,43.6548488 C30.8496071,41.6479754 31.1792503,39.5942059 31.3015873,37.5234619 C29.7579314,36.752778 28.3137383,35.8022876 27,34.6923879 C26.719707,36.3704654 26.2347119,38.0090306 25.5555556,39.5724713 Z" id="Path" fill="#009900"></path>
            <path d="M13.6984127,7.47653806 C11.8155752,6.54441209 9.84277762,5.8003483 7.80952381,5.25547445 C8.00799798,7.32285724 8.41205395,9.36603309 9.01587302,11.3555787 C10.7321109,11.5501594 12.4170518,11.9547367 14.031746,12.5599583 C13.7121189,10.885041 13.6001877,9.17806082 13.6984127,7.47653806 L13.6984127,7.47653806 Z" id="Path" fill="#009900"></path>
            <path d="M31.2857143,37.5234619 C33.1685517,38.4555879 35.1413494,39.1996517 37.1746032,39.7445255 C36.976129,37.6771428 36.572073,35.6339669 35.968254,33.6444213 C34.2514494,33.4441449 32.5665709,33.0343286 30.952381,32.4244004 C31.2873007,34.102667 31.399351,35.8167224 31.2857143,37.5234619 L31.2857143,37.5234619 Z" id="Path" fill="#009900"></path>
            <path d="M11.0952381,16.016684 C10.2116894,14.5524177 9.51337379,12.9870733 9.01587302,11.3555787 C6.92417051,11.1140631 4.81332844,11.0773875 2.71428571,11.2460897 C3.62176623,13.1150447 4.7059219,14.8955923 5.95238095,16.5641293 C7.6365343,16.1695535 9.36442435,15.9856236 11.0952381,16.016684 L11.0952381,16.016684 Z" id="Path" fill="#009900"></path>
            <path d="M33.8888889,28.983316 C34.7789652,30.4442633 35.4776482,32.0104314 35.968254,33.6444213 C38.0599565,33.8859369 40.1707985,33.9226125 42.2698413,33.7539103 C41.3589345,31.8785431 40.2693895,30.0926358 39.015873,28.4202294 C37.3381272,28.821977 35.6152287,29.0111996 33.8888889,28.983316 L33.8888889,28.983316 Z" id="Path" fill="#009900"></path>
            <path d="M5.95238095,16.5641293 C3.90776816,17.0490375 1.91464891,17.7246613 0,18.5818561 C1.50283288,20.0384317 3.14543766,21.347999 4.9047619,22.4921794 C6.34805594,21.5533294 7.90519116,20.7966373 9.53968254,20.2398332 C8.19724917,19.1622934 6.9926549,17.9280142 5.95238095,16.5641293 L5.95238095,16.5641293 Z" id="Path" fill="#009900"></path>
            <path d="M40.0952381,22.4921794 C38.6519441,23.4310293 37.0948088,24.1877214 35.4603175,24.7445255 C36.801834,25.8180511 38.0016448,27.052893 39.031746,28.4202294 C41.0779771,27.9408034 43.0716249,27.2650004 44.984127,26.4025026 C43.4915396,24.940976 41.8536812,23.6309532 40.0952381,22.4921794 L40.0952381,22.4921794 Z" id="Path" fill="#009900"></path>
            <path d="M9.53968254,24.7445255 C7.90519116,24.1877214 6.34805594,23.4310293 4.9047619,22.4921794 C3.14543766,23.6363597 1.50283288,24.945927 0,26.4025026 C1.91173744,27.2668842 3.9055767,27.942752 5.95238095,28.4202294 C6.99683382,27.0598553 8.20097243,25.826043 9.53968254,24.7445255 L9.53968254,24.7445255 Z" id="Path" fill="#009900"></path>
            <path d="M35.4603175,20.2398332 C37.0934419,20.7998591 38.6501823,21.5563593 40.0952381,22.4921794 C41.8545623,21.347999 43.4971671,20.0384317 45,18.5818561 C43.0882626,17.7174745 41.0944233,17.0416067 39.047619,16.5641293 C38.0073451,17.9280142 36.8027508,19.1622934 35.4603175,20.2398332 L35.4603175,20.2398332 Z" id="Path" fill="#009900"></path>
            <path d="M5.95238095,28.4358707 C4.69266689,30.1012295 3.60774191,31.8882812 2.71428571,33.7695516 C4.8135871,33.9300028 6.92361682,33.8933414 9.01587302,33.6600626 C9.51337379,32.028568 10.2116894,30.4632236 11.0952381,28.9989572 C9.36453791,29.0094621 7.63852884,28.820483 5.95238095,28.4358707 L5.95238095,28.4358707 Z" id="Path" fill="#009900"></path>
            <path d="M39.031746,16.5641293 C40.2886818,14.893975 41.3784299,13.107735 42.2857143,11.2304484 C40.186412,11.0700256 38.0763851,11.1066869 35.984127,11.3399374 C35.4866262,12.971432 34.7883106,14.5367764 33.9047619,16.0010428 C35.6306278,15.9827384 37.3523222,16.1718287 39.031746,16.5641293 Z" id="Path" fill="#009900"></path>
            <path d="M14.031746,32.4244004 C12.4152478,33.0270521 10.7312847,33.4366458 9.01587302,33.6444213 C8.41205395,35.6339669 8.00799798,37.6771428 7.80952381,39.7445255 C9.84277762,39.1996517 11.8155752,38.4555879 13.6984127,37.5234619 C13.6006663,35.8167489 13.7125888,34.1046498 14.031746,32.4244004 L14.031746,32.4244004 Z" id="Path" fill="#009900"></path>
            <path d="M30.952381,12.5599583 C32.5670752,11.9547367 34.2520161,11.5501594 35.968254,11.3555787 C36.572073,9.36603309 36.976129,7.32285724 37.1746032,5.25547445 C35.1413494,5.8003483 33.1685517,6.54441209 31.2857143,7.47653806 C31.3993396,9.17808555 31.2872836,10.8869695 30.952381,12.5599583 L30.952381,12.5599583 Z" id="Path" fill="#009900"></path>
            <path d="M13.6984127,37.5234619 C13.8192652,39.5943635 14.1489315,41.6482769 14.6825397,43.6548488 C16.4010907,42.450267 17.995982,41.0829678 19.4444444,39.5724713 C18.7559803,38.0069018 18.2706683,36.3620107 18,34.6767466 C16.6905576,35.7965648 15.2457559,36.7527093 13.6984127,37.5234619 L13.6984127,37.5234619 Z" id="Path" fill="#009900"></path>
            <path d="M31.2857143,7.47653806 C31.1648617,5.40563646 30.8351955,3.35172306 30.3015873,1.3451512 C28.5830362,2.54973303 26.9881449,3.91703217 25.5396825,5.42752868 C26.2188389,6.99096936 26.703834,8.6295346 26.984127,10.3076121 C28.3005194,9.20116589 29.7442791,8.25096071 31.2857143,7.47653806 L31.2857143,7.47653806 Z" id="Path" fill="#009900"></path>
            <path d="M20.9206349,13.7486966 C21.2137179,12.2677324 21.7441642,10.8421802 22.4920635,9.52554745 C21.6469425,8.03509653 20.6179654,6.65338507 19.4285714,5.41188738 C18.7422174,6.97277732 18.2569593,8.6122311 17.984127,10.2919708 C19.1408575,11.2853459 20.1318056,12.4518457 20.9206349,13.7486966 Z" id="Path" fill="#99CC00"></path>
            <path d="M24.0634921,31.2513034 C23.7677543,32.7315367 23.2374578,34.1566865 22.4920635,35.4744526 C23.3318047,36.9683042 24.3612557,38.350652 25.5555556,39.5881126 C26.2368226,38.0199958 26.7218705,36.3759998 27,34.6923879 C25.8399473,33.7082332 24.8484029,32.5463131 24.0634921,31.2513034 Z" id="Path" fill="#99CC00"></path>
            <path d="M14.031746,12.5599583 C15.4601473,13.0965471 16.7939307,13.8513529 17.984127,14.7966632 C17.7459961,13.3095123 17.7459961,11.794763 17.984127,10.3076121 C16.6730494,9.19425941 15.2284133,8.24347738 13.6825397,7.47653806 C13.5978133,9.17862861 13.7150085,10.884647 14.031746,12.5599583 Z" id="Path" fill="#99CC00"></path>
            <path d="M30.952381,32.4244004 C29.5239796,31.8878116 28.1901963,31.1330058 27,30.1876955 C27.2409171,31.6750597 27.2355566,33.1910729 26.984127,34.6767466 C28.2952046,35.7900993 29.7398407,36.7408813 31.2857143,37.5078206 C31.3988516,35.8062729 31.2867997,34.0974513 30.952381,32.4244004 Z" id="Path" fill="#99CC00"></path>
            <path d="M15.5873016,16.7831074 C14.8463425,15.4648896 14.3213541,14.0396082 14.031746,12.5599583 C12.4170518,11.9547367 10.7321109,11.5501594 9.01587302,11.3555787 C9.51337379,12.9870733 10.2116894,14.5524177 11.0952381,16.016684 C12.6245531,16.0337773 14.1411807,16.2925401 15.5873016,16.7831074 Z" id="Path" fill="#99CC00"></path>
            <path d="M29.3968254,28.2168926 C30.1377844,29.5351104 30.6627729,30.9603918 30.952381,32.4400417 C32.5688792,33.0426933 34.2528423,33.4522871 35.968254,33.6600626 C35.4707532,32.028568 34.7724376,30.4632236 33.8888889,28.9989572 C32.360552,28.9583463 30.8467575,28.6947959 29.3968254,28.2168926 Z" id="Path" fill="#99CC00"></path>
            <path d="M9.53968254,20.2398332 C10.9858317,19.7474105 12.5019142,19.4834617 14.031746,19.4577685 C12.8759766,18.4737171 11.8896509,17.3116308 11.1111111,16.016684 C9.38065989,15.9934111 7.65374087,16.1772376 5.96825397,16.5641293 C6.99835518,17.9314657 8.19816603,19.1663076 9.53968254,20.2398332 L9.53968254,20.2398332 Z" id="Path" fill="#99CC00"></path>
            <path d="M35.4603175,24.7445255 C34.0141683,25.2369482 32.4980858,25.500897 30.968254,25.5265902 C32.1240234,26.5106416 33.1103491,27.672728 33.8888889,28.9676747 C35.620422,28.9946342 37.3484511,28.805434 39.031746,28.4045881 C37.9928174,27.0492882 36.7939121,25.820629 35.4603175,24.7445255 Z" id="Path" fill="#99CC00"></path>
            <path d="M13.4761905,22.4921794 C12.0497767,21.9546047 10.720575,21.1940772 9.53968254,20.2398332 C7.90519116,20.7966373 6.34805594,21.5533294 4.9047619,22.4921794 C6.34805594,23.4310293 7.90519116,24.1877214 9.53968254,24.7445255 C10.7244864,23.7958514 12.0527467,23.0358625 13.4761905,22.4921794 Z" id="Path" fill="#99CC00"></path>
            <path d="M31.5079365,22.4921794 C32.9375366,23.0331949 34.2714355,23.7933448 35.4603175,24.7445255 C37.0934419,24.1844996 38.6501823,23.4279994 40.0952381,22.4921794 C38.6519441,21.5533294 37.0948088,20.7966373 35.4603175,20.2398332 C34.2776165,21.1998236 32.9422027,21.9608368 31.5079365,22.4921794 Z" id="Path" fill="#99CC00"></path>
            <path d="M11.0952381,28.983316 C11.8787768,27.6918613 12.8644755,26.5305138 14.015873,25.5422315 C12.4860411,25.5165383 10.9699587,25.2525895 9.52380952,24.7601668 C8.18229301,25.8336924 6.98248216,27.0685343 5.95238095,28.4358707 C7.63786786,28.8227624 9.36478687,29.0065889 11.0952381,28.983316 L11.0952381,28.983316 Z" id="Path" fill="#99CC00"></path>
            <path d="M33.8888889,16.016684 C33.1053502,17.3081387 32.1196515,18.4694862 30.968254,19.4577685 C32.4980858,19.4834617 34.0141683,19.7474105 35.4603175,20.2398332 C36.801834,19.1663076 38.0016448,17.9314657 39.031746,16.5641293 C37.3477425,16.1686968 35.6197419,15.9847552 33.8888889,16.016684 L33.8888889,16.016684 Z" id="Path" fill="#99CC00"></path>
            <path d="M15.5873016,28.2168926 C14.1411807,28.7074599 12.6245531,28.9662227 11.0952381,28.983316 C10.2116894,30.4475823 9.51337379,32.0129267 9.01587302,33.6444213 C10.7326776,33.4441449 12.4175561,33.0343286 14.031746,32.4244004 C14.3240732,30.9504471 14.8489567,29.5307283 15.5873016,28.2168926 Z" id="Path" fill="#99CC00"></path>
            <path d="M29.3968254,16.7831074 C30.8429463,16.2925401 32.3595739,16.0337773 33.8888889,16.016684 C34.7789652,14.5557367 35.4776482,12.9895686 35.968254,11.3555787 C34.2520161,11.5501594 32.5670752,11.9547367 30.952381,12.5599583 C30.6700109,14.0415678 30.1446129,15.4679611 29.3968254,16.7831074 L29.3968254,16.7831074 Z" id="Path" fill="#99CC00"></path>
            <path d="M20.9206349,31.2513034 C20.135724,32.5463131 19.1441797,33.7082332 17.984127,34.6923879 C18.2569872,36.3771684 18.7422206,38.0217933 19.4285714,39.5881126 C20.6179654,38.3466149 21.6469425,36.9649035 22.4920635,35.4744526 C21.7534739,34.1536213 21.2235753,32.7295408 20.9206349,31.2513034 Z" id="Path" fill="#99CC00"></path>
            <path d="M17.984127,30.2033368 C16.7961657,31.1518629 15.4618397,31.9069757 14.031746,32.4400417 C13.704727,34.1140342 13.5927365,35.8219188 13.6984127,37.5234619 C15.2420686,36.752778 16.6862617,35.8022876 18,34.6923879 C17.7485704,33.2067142 17.7432099,31.690701 17.984127,30.2033368 L17.984127,30.2033368 Z" id="Path" fill="#99CC00"></path>
            <path d="M24.0634921,13.7486966 C24.8533148,12.4571408 25.844243,11.2959427 27,10.3076121 C26.7293573,8.62738781 26.2440202,6.98766728 25.5555556,5.42752868 C24.3710914,6.67306791 23.3425757,8.05415975 22.4920635,9.54118874 C23.2423968,10.8511497 23.7730423,12.2719556 24.0634921,13.7486966 L24.0634921,13.7486966 Z" id="Path" fill="#99CC00"></path>
            <path d="M27,14.7966632 C28.1857263,13.8449302 29.5206028,13.0895059 30.952381,12.5599583 C31.2793999,10.8859658 31.3913905,9.1780812 31.2857143,7.47653806 C29.7420584,8.247222 28.2978653,9.19771244 26.984127,10.3076121 C27.2355566,11.7932858 27.2409171,13.309299 27,14.7966632 Z" id="Path" fill="#99CC00"></path>
            <path d="M20.9365079,18.2846715 C20.1886397,16.9505631 19.1861246,15.7714807 17.984127,14.8123045 C18.2389008,16.3133667 18.7715643,17.7554815 19.5555556,19.0667362 C18.3879428,18.073455 17.0420335,17.3042237 15.5873016,16.7987487 C16.3448417,18.1262958 17.3459342,19.303705 18.5396825,20.2711157 C17.0963754,19.7261712 15.5613936,19.4555002 14.015873,19.4734098 C15.1877955,20.4651857 16.5396309,21.2294187 18,21.725756 C16.4554195,21.7019081 14.9202916,21.9672971 13.4761905,22.5078206 C14.9231082,23.038182 16.4562815,23.3032331 18,23.2898853 C16.5396309,23.7862226 15.1877955,24.5504556 14.015873,25.5422315 C15.5613936,25.5601411 17.0963754,25.2894701 18.5396825,24.7445255 C17.3423618,25.7083779 16.3406609,26.8865028 15.5873016,28.2168926 C17.0407871,27.708759 18.3862198,26.9398 19.5555556,25.9489051 C18.7647708,27.2569922 18.2316305,28.700398 17.984127,30.2033368 C19.1745978,29.2326716 20.1751423,28.055907 20.9365079,26.7309698 C20.6505515,28.2298329 20.6505515,29.7680816 20.9365079,31.2669447 C21.7223806,29.9565653 22.2551749,28.5140965 22.5079365,27.012513 C22.7580401,28.5147829 23.2910085,29.9577232 24.0793651,31.2669447 C24.3653215,29.7680816 24.3653215,28.2298329 24.0793651,26.7309698 C24.8365093,28.0587865 25.8376589,29.236263 27.031746,30.2033368 C26.7783788,28.6995753 26.2398947,27.2562808 25.4444444,25.9489051 C26.6177065,26.9425999 27.9688868,27.7117671 29.4285714,28.2168926 C28.6752121,26.8865028 27.6735112,25.7083779 26.4761905,24.7445255 C27.9194976,25.2894701 29.4544794,25.5601411 31,25.5422315 C29.8249647,24.5510029 28.4742754,23.7821152 27.015873,23.274244 C28.5604535,23.2980919 30.0955814,23.0327029 31.5396825,22.4921794 C30.0931332,21.960481 28.559707,21.6953862 27.015873,21.7101147 C28.4762421,21.2137774 29.8280775,20.4495444 31,19.4577685 C29.4544794,19.4398589 27.9194976,19.7105299 26.4761905,20.2554745 C27.6781439,19.2919946 28.6851248,18.1139933 29.4444444,16.7831074 C27.9847598,17.2882329 26.6335795,18.0574001 25.4603175,19.0510949 C26.2557678,17.7437192 26.7942518,16.3004247 27.047619,14.7966632 C25.8571482,15.7673284 24.8566038,16.944093 24.0952381,18.2690302 C24.3811945,16.7701671 24.3811945,15.2319184 24.0952381,13.7330553 C23.3068815,15.0422768 22.7739131,16.4852171 22.5238095,17.987487 C22.2737059,16.4852171 21.7407375,15.0422768 20.952381,13.7330553 C20.6529683,15.2354187 20.6475808,16.7803158 20.9365079,18.2846715 L20.9365079,18.2846715 Z" id="Path" fill="#FFFFFF"></path>
            <path d="M20.9365079,18.2846715 C20.6505515,16.7858084 20.6505515,15.2475597 20.9365079,13.7486966 C20.1515971,12.4536869 19.1600527,11.2917668 18,10.3076121 C17.7539401,11.7941401 17.7539401,13.3101352 18,14.7966632 C19.1850952,15.7745257 20.1800814,16.9563785 20.9365079,18.2846715 Z" id="Path" fill="#FFE600"></path>
            <path d="M24.047619,26.7153285 C24.3335755,28.2141916 24.3335755,29.7524403 24.047619,31.2513034 C24.8374418,32.5428592 25.82837,33.7040573 26.984127,34.6923879 C27.2277012,33.2060696 27.2330573,31.6912916 27,30.2033368 C25.8056118,29.2304181 24.8045768,28.0477731 24.047619,26.7153285 L24.047619,26.7153285 Z" id="Path" fill="#FFE600"></path>
            <path d="M17.984127,14.7966632 C16.7961657,13.8481371 15.4618397,13.0930243 14.031746,12.5599583 C14.3141161,14.0415678 14.8395141,15.4679611 15.5873016,16.7831074 C17.0436898,17.285039 18.3902415,18.0546375 19.5555556,19.0510949 C18.7691498,17.7409638 18.2363183,16.2983941 17.984127,14.7966632 L17.984127,14.7966632 Z" id="Path" fill="#FFE600"></path>
            <path d="M27,30.2033368 C28.1857263,31.1550698 29.5206028,31.9104941 30.952381,32.4400417 C30.6700109,30.9584322 30.1446129,29.5320389 29.3968254,28.2168926 C27.9400396,27.7055698 26.5899605,26.9370294 25.4126984,25.9489051 C26.2174558,27.2518748 26.7566197,28.6969915 27,30.2033368 L27,30.2033368 Z" id="Path" fill="#FFE600"></path>
            <path d="M18.5555556,20.2554745 C17.3582349,19.2916221 16.3565339,18.1134972 15.6031746,16.7831074 C14.1570537,16.2925401 12.6404261,16.0337773 11.1111111,16.016684 C11.8946498,17.3081387 12.8803485,18.4694862 14.031746,19.4577685 C15.5771556,19.4411751 17.1118893,19.7118023 18.5555556,20.2554745 L18.5555556,20.2554745 Z" id="Path" fill="#FFE600"></path>
            <path d="M26.4444444,24.7445255 C27.6417651,25.7083779 28.6434661,26.8865028 29.3968254,28.2168926 C30.8429463,28.7074599 32.3595739,28.9662227 33.8888889,28.983316 C33.1053502,27.6918613 32.1196515,26.5305138 30.968254,25.5422315 C29.4227334,25.5601411 27.8877516,25.2894701 26.4444444,24.7445255 Z" id="Path" fill="#FFE600"></path>
            <path d="M18,21.725756 C16.5396309,21.2294187 15.1877955,20.4651857 14.015873,19.4734098 C12.4860411,19.499103 10.9699587,19.7630518 9.52380952,20.2554745 C10.7069246,21.2065568 12.0355885,21.9667765 13.4603175,22.5078206 C14.9089881,21.9638905 16.449978,21.6984196 18,21.725756 Z" id="Path" fill="#FFE600"></path>
            <path d="M26.984127,23.274244 C28.4425294,23.7821152 29.7932186,24.5510029 30.968254,25.5422315 C32.4980858,25.5165383 34.0141683,25.2525895 35.4603175,24.7601668 C34.2736973,23.8057546 32.9392509,23.0452927 31.5079365,22.5078206 C30.0627947,23.0430471 28.5276924,23.3031239 26.984127,23.274244 Z" id="Path" fill="#FFE600"></path>
            <path d="M13.4761905,22.4921794 C12.0497767,23.029754 10.720575,23.7902815 9.53968254,24.7445255 C10.9858317,25.2369482 12.5019142,25.500897 14.031746,25.5265902 C15.2036685,24.5348143 16.5555039,23.7705813 18.015873,23.274244 C16.4656335,23.3043531 14.924111,23.0387904 13.4761905,22.4921794 L13.4761905,22.4921794 Z" id="Path" fill="#FFE600"></path>
            <path d="M31.5079365,22.4921794 C32.9375366,21.9511638 34.2714355,21.1910139 35.4603175,20.2398332 C34.0141683,19.7474105 32.4980858,19.4834617 30.968254,19.4577685 C29.7963315,20.4495444 28.4444961,21.2137774 26.984127,21.7101147 C28.528065,21.6941351 30.0617215,21.9592697 31.5079365,22.4921794 Z" id="Path" fill="#FFE600"></path>
            <path d="M18.5555556,24.7445255 C17.1122484,25.2894701 15.5772666,25.5601411 14.031746,25.5422315 C12.8759766,26.5262829 11.8896509,27.6883692 11.1111111,28.983316 C12.6397068,28.958595 14.1551287,28.700038 15.6031746,28.2168926 C16.3463878,26.8796451 17.3496065,25.6997352 18.5555556,24.7445255 L18.5555556,24.7445255 Z" id="Path" fill="#FFE600"></path>
            <path d="M26.4444444,20.2554745 C27.8877516,19.7105299 29.4227334,19.4398589 30.968254,19.4577685 C32.1240234,18.4737171 33.1103491,17.3116308 33.8888889,16.016684 C32.3602932,16.041405 30.8448713,16.299962 29.3968254,16.7831074 C28.6434661,18.1134972 27.6417651,19.2916221 26.4444444,20.2554745 L26.4444444,20.2554745 Z" id="Path" fill="#FFE600"></path>
            <path d="M20.9206349,31.2513034 C21.2163727,32.7315367 21.7466691,34.1566865 22.4920635,35.4744526 C23.2331666,34.1547512 23.7632107,32.7302798 24.0634921,31.2513034 C23.2776194,29.940924 22.7448251,28.4984552 22.4920635,26.9968717 C22.2465337,28.5003168 21.7132618,29.9440787 20.9206349,31.2513034 Z" id="Path" fill="#FFE600"></path>
            <path d="M20.9365079,26.7153285 C20.1843855,28.0465574 19.1825027,29.2248962 17.984127,30.1876955 C17.7459961,31.6748464 17.7459961,33.1895958 17.984127,34.6767466 C19.139884,33.6884161 20.1308122,32.5272179 20.9206349,31.2356621 C20.648173,29.7403624 20.6535513,28.2087344 20.9365079,26.7153285 L20.9365079,26.7153285 Z" id="Path" fill="#FFE600"></path>
            <path d="M15.5873016,28.2168926 C14.8463425,29.5351104 14.3213541,30.9603918 14.031746,32.4400417 C15.4601473,31.9034529 16.7939307,31.1486471 17.984127,30.2033368 C18.2389008,28.7022745 18.7715643,27.2601597 19.5555556,25.9489051 C18.3862198,26.9398 17.0407871,27.708759 15.5873016,28.2168926 Z" id="Path" fill="#FFE600"></path>
            <path d="M24.0634921,13.7486966 C23.770409,12.2677324 23.2399628,10.8421802 22.4920635,9.52554745 C21.748458,10.8441212 21.2182674,12.2689866 20.9206349,13.7486966 C21.7089915,15.0579181 22.2419599,16.5008584 22.4920635,18.0031283 C22.7421671,16.5008584 23.2751355,15.0579181 24.0634921,13.7486966 L24.0634921,13.7486966 Z" id="Path" fill="#FFE600"></path>
            <path d="M24.047619,18.2846715 C24.8005042,16.9539599 25.8022748,15.7757532 27,14.8123045 C27.2409451,13.3249424 27.2355846,11.8089248 26.984127,10.3232534 C25.82837,11.3115839 24.8374418,12.4727821 24.047619,13.7643379 C24.3495665,15.2564272 24.3495665,16.7925822 24.047619,18.2846715 Z" id="Path" fill="#FFE600"></path>
            <path d="M29.3968254,16.7831074 C30.1377844,15.4648896 30.6627729,14.0396082 30.952381,12.5599583 C29.5239796,13.0965471 28.1901963,13.8513529 27,14.7966632 C26.7466328,16.3004247 26.2081487,17.7437192 25.4126984,19.0510949 C26.5899605,18.0629706 27.9400396,17.2944302 29.3968254,16.7831074 Z" id="Path" fill="#FFE600"></path>
        </g>
    </g>
</svg>
